<svg width="204" height="89" viewBox="0 0 204 89" fill="none" xmlns="http://www.w3.org/2000/svg">
<path d="M202.856 17.2703C201.333 14.8635 200.523 -1.44932 197.749 -0.768607C197.307 -0.647051 195.515 -1.1819 195.318 -0.768607L-5.31177 -1.01172V68.3238C5.41699 69.8797 16.0475 72.1892 26.408 75.3011C36.9158 78.4615 47.2027 82.3999 57.9069 84.8797C72.8584 88.3805 88.3991 88.9883 103.694 87.5782C112.95 86.7273 122.206 85.0985 130.897 81.8165C138.311 78.9964 145.21 75.0094 151.79 70.609C172.192 56.9948 189.893 39.4178 203.568 19.1423C202.88 18.0726 203.568 18.34 202.88 17.246L202.856 17.2703Z" fill="url(#paint0_linear_2555_11121)"/>
<defs>
<linearGradient id="paint0_linear_2555_11121" x1="99.1279" y1="15.8602" x2="99.1279" y2="104.791" gradientUnits="userSpaceOnUse">
<stop stop-color="#1958F7"/>
<stop offset="1" stop-color="#002B99"/>
</linearGradient>
</defs>
</svg>
