<svg width="178" height="87" viewBox="0 0 178 87" fill="none" xmlns="http://www.w3.org/2000/svg">
<path d="M215.148 20.6235C203.682 19.0676 192.34 16.6608 181.267 13.3302C170.759 10.1697 160.473 6.2313 149.768 3.75156C134.817 0.250754 119.276 -0.357027 103.981 1.05302C94.7252 1.90391 85.4695 3.53279 76.7784 6.8148C69.364 9.63489 62.4652 13.6219 55.8855 18.0223C35.4837 31.6365 17.7825 49.2135 4.10762 69.489C4.79505 70.5587 2.95375 71.8715 2.43818 73.0384C-0.237876 79.2621 0.965117 88.6949 3.73937 87.9898C4.18129 87.8683 12.1112 87.6252 12.3076 87.2362H215.074V20.6478L215.148 20.6235Z" fill="url(#paint0_linear_2555_11120)"/>
<defs>
<linearGradient id="paint0_linear_2555_11120" x1="108.081" y1="107.512" x2="108.081" y2="-5.34082" gradientUnits="userSpaceOnUse">
<stop stop-color="#1958F7"/>
<stop offset="1" stop-color="#002B99"/>
</linearGradient>
</defs>
</svg>
