<svg width="87" height="74" viewBox="0 0 87 74" fill="none" xmlns="http://www.w3.org/2000/svg">
<path d="M84.1376 34.1937L67.8083 21.0679C67.5531 20.8145 67.2469 20.6118 66.9408 20.4091L44.59 2.4181C43.9266 1.86063 42.957 1.86063 42.2426 2.4181L2.69499 34.1937C1.3172 35.3086 2.13366 37.4371 3.86865 37.4371H10.0432C9.78805 39.1602 9.63496 40.9339 9.63496 42.809V42.9611C9.63496 56.2896 15.2482 64.7023 25.403 68.9086C30.5569 70.9864 36.5274 72 43.3653 72C56.939 72 67.298 67.895 72.9112 59.2796C75.7178 54.9213 77.1466 49.5493 77.1466 43.0624V42.7584C77.1466 40.9339 76.9935 39.1602 76.7384 37.4878H82.9129C84.6989 37.4878 85.5154 35.3086 84.1376 34.1937ZM52.3464 29.7339C57.3983 31.8118 60.1539 35.9674 60.1539 42.5557V42.657C60.1539 45.7484 59.4395 48.333 58.0106 50.5122C55.153 54.9213 49.9991 57.2525 43.3142 57.2525C40.0484 57.2525 37.1397 56.695 34.6903 55.5801C29.6894 53.2489 26.6787 48.8905 26.6787 42.7077V42.5557C26.6787 39.3122 27.3931 36.6769 28.7709 34.4977C31.5775 30.2407 36.6804 28.1629 43.4163 28.1629C46.8352 28.2136 49.7949 28.7204 52.3464 29.7339Z" fill="white" stroke="#DB4444" stroke-width="2.85984" stroke-miterlimit="10"/>
<path d="M74.6435 11.5407C74.6945 11.3886 74.7966 11.2873 74.9497 11.2873H76.6336C76.7357 11.2873 76.8378 11.2366 76.8888 11.1353L77.9094 9.61489H74.8987C74.7456 9.61489 74.5925 9.51354 74.5925 9.31082C74.5414 8.95607 74.3884 8.60132 74.1842 8.24657C74.0312 8.04385 74.1842 7.73978 74.4904 7.73978H76.6847C76.7867 7.73978 76.8888 7.6891 76.9398 7.58774L77.9604 6.06738H66.8871C66.785 6.06738 66.6829 6.11806 66.6319 6.21942L65.6113 7.73978H67.4994C69.4896 7.73978 71.3266 7.89182 72.041 9.56422H66.8871C66.785 9.56422 66.6829 9.61489 66.6319 9.71625L65.6113 11.2366H72.2451V11.2873C72.2451 12.5036 71.2246 14.4294 67.8566 14.4294H66.5299C66.3257 14.4294 66.1727 14.5814 66.1727 14.7841V15.8991C66.1727 16.0004 66.2237 16.1018 66.2747 16.1525L74.6435 22.9941C74.6945 23.0448 74.7456 23.0448 74.7966 23.0954L74.6435 11.5407Z" fill="white" stroke="#DB4444" stroke-width="0.654925" stroke-miterlimit="10"/>
</svg>
