<svg width="44" height="44" viewBox="0 0 44 44" fill="none" xmlns="http://www.w3.org/2000/svg">
<path d="M12.8334 12.8333V9.16663C12.8334 8.1049 13.1407 7.06588 13.7183 6.17498C14.2958 5.28407 15.1188 4.57937 16.0881 4.14594C17.0573 3.7125 18.1312 3.56886 19.1803 3.73235C20.2294 3.89584 21.2087 4.35948 22 5.06729C22.7914 4.35948 23.7707 3.89584 24.8198 3.73235C25.8688 3.56886 26.9428 3.7125 27.912 4.14594C28.8812 4.57937 29.7043 5.28407 30.2818 6.17498C30.8594 7.06588 31.1667 8.1049 31.1667 9.16663V12.8333H33.9167C34.6461 12.8333 35.3455 13.123 35.8612 13.6387C36.377 14.1545 36.6667 14.8539 36.6667 15.5833V33.9258C36.6667 35.6252 35.9916 37.2549 34.79 38.4566C33.5884 39.6582 31.9586 40.3333 30.2592 40.3333H14.6667C12.7218 40.3333 10.8565 39.5607 9.48126 38.1854C8.10599 36.8101 7.33337 34.9449 7.33337 33V15.5833C7.33337 14.8539 7.6231 14.1545 8.13883 13.6387C8.65456 13.123 9.35403 12.8333 10.0834 12.8333H12.8334ZM24.9975 37.5833C24.2497 36.5104 23.8496 35.2336 23.8517 33.9258V15.5833H10.0834V33C10.0834 33.6019 10.2019 34.1979 10.4323 34.7539C10.6626 35.31 11.0002 35.8153 11.4258 36.2409C11.8514 36.6665 12.3567 37.0041 12.9127 37.2344C13.4688 37.4647 14.0648 37.5833 14.6667 37.5833H24.9975ZM21.0834 12.8333V9.16663C21.0834 8.43728 20.7936 7.73781 20.2779 7.22208C19.7622 6.70636 19.0627 6.41663 18.3334 6.41663C17.604 6.41663 16.9046 6.70636 16.3888 7.22208C15.8731 7.73781 15.5834 8.43728 15.5834 9.16663V12.8333H21.0834ZM23.8334 12.8333H28.4167V9.16663C28.4168 8.60056 28.2421 8.04826 27.9166 7.58513C27.5911 7.12199 27.1307 6.77059 26.598 6.57888C26.0654 6.38717 25.4866 6.36449 24.9406 6.51395C24.3947 6.6634 23.9081 6.97771 23.5474 7.41396C23.7325 7.96396 23.8334 8.55429 23.8334 9.16663V12.8333ZM26.6017 33.9258C26.6017 34.8958 26.9871 35.8261 27.673 36.512C28.3589 37.198 29.2892 37.5833 30.2592 37.5833C31.2292 37.5833 32.1595 37.198 32.8455 36.512C33.5314 35.8261 33.9167 34.8958 33.9167 33.9258V15.5833H26.6017V33.9258Z" fill="black"/>
</svg>
