<svg width="40" height="40" viewBox="0 0 40 40" fill="none" xmlns="http://www.w3.org/2000/svg">
<path d="M31.6667 36.6667V24.8334C31.6664 23.301 31.3642 21.7837 30.7774 20.3682C30.1906 18.9526 29.3307 17.6665 28.2467 16.5834L24.9967 13.3334V24.3117C24.9967 25.795 23.2017 26.54 22.1517 25.49L19.9934 23.3334C19.1601 22.5 17.1584 22 15.8234 23.3334C14.4901 24.6667 14.9901 26.6667 15.8234 27.5L24.9967 36.6667" stroke="black" stroke-width="2" stroke-linecap="round" stroke-linejoin="round"/>
<path d="M18.3334 3.33337H21.6667C22.5508 3.33337 23.3986 3.68456 24.0237 4.30968C24.6489 4.93481 25 5.78265 25 6.66671V10M18.3334 3.33337C18.3334 5.55504 19.6667 10 25 10M18.3334 3.33337H15M25 10V20M8.33337 20V10M15 3.33337H11.6667C10.7827 3.33337 9.93481 3.68456 9.30968 4.30968C8.68456 4.93481 8.33337 5.78265 8.33337 6.66671V10M15 3.33337C15 5.55504 13.6667 10 8.33337 10M8.33337 20V23.3334C8.33337 24.2174 8.68456 25.0653 9.30968 25.6904C9.93481 26.3155 10.7827 26.6667 11.6667 26.6667H15C15 24.445 13.6667 20 8.33337 20Z" stroke="black" stroke-width="2" stroke-linecap="round" stroke-linejoin="round"/>
<path d="M15 15C15 15.9205 15.7462 16.6667 16.6667 16.6667C17.5872 16.6667 18.3334 15.9205 18.3334 15C18.3334 14.0796 17.5872 13.3334 16.6667 13.3334C15.7462 13.3334 15 14.0796 15 15Z" stroke="black" stroke-width="2" stroke-linecap="round" stroke-linejoin="round"/>
</svg>
