<svg width="22" height="22" viewBox="0 0 22 22" fill="none" xmlns="http://www.w3.org/2000/svg">
<path d="M10.6662 11.5561C11.1572 11.5561 11.5551 11.1581 11.5551 10.6672C11.5551 10.1763 11.1572 9.77832 10.6662 9.77832C10.1753 9.77832 9.77734 10.1763 9.77734 10.6672C9.77734 11.1581 10.1753 11.5561 10.6662 11.5561Z" stroke="#C8CAD8" stroke-width="2.66667" stroke-linecap="round" stroke-linejoin="round"/>
<path d="M16.8889 11.5561C17.3798 11.5561 17.7778 11.1581 17.7778 10.6672C17.7778 10.1763 17.3798 9.77832 16.8889 9.77832C16.398 9.77832 16 10.1763 16 10.6672C16 11.1581 16.398 11.5561 16.8889 11.5561Z" stroke="#C8CAD8" stroke-width="2.66667" stroke-linecap="round" stroke-linejoin="round"/>
<path d="M4.44358 11.5561C4.9345 11.5561 5.33246 11.1581 5.33246 10.6672C5.33246 10.1763 4.9345 9.77832 4.44358 9.77832C3.95266 9.77832 3.55469 10.1763 3.55469 10.6672C3.55469 11.1581 3.95266 11.5561 4.44358 11.5561Z" stroke="#C8CAD8" stroke-width="2.66667" stroke-linecap="round" stroke-linejoin="round"/>
</svg>
