<svg width="33" height="32" viewBox="0 0 33 32" fill="none" xmlns="http://www.w3.org/2000/svg">
<path d="M8.33398 2.66602L4.33398 7.99935V26.666C4.33398 27.3733 4.61494 28.0515 5.11503 28.5516C5.61513 29.0517 6.29341 29.3327 7.00065 29.3327H25.6673C26.3746 29.3327 27.0528 29.0517 27.5529 28.5516C28.053 28.0515 28.334 27.3733 28.334 26.666V7.99935L24.334 2.66602H8.33398Z" stroke="#DB4444" stroke-width="2.66667" stroke-linecap="round" stroke-linejoin="round"/>
<path d="M4.33398 8H28.334" stroke="#DB4444" stroke-width="2.66667" stroke-linecap="round" stroke-linejoin="round"/>
<path d="M21.6667 13.333C21.6667 14.7475 21.1048 16.1041 20.1046 17.1042C19.1044 18.1044 17.7478 18.6663 16.3333 18.6663C14.9188 18.6663 13.5623 18.1044 12.5621 17.1042C11.5619 16.1041 11 14.7475 11 13.333" stroke="#DB4444" stroke-width="2.66667" stroke-linecap="round" stroke-linejoin="round"/>
</svg>
